<?xml version="1.0" encoding="UTF-8"?>
<svg id="Layer_2" data-name="Layer 2" xmlns="http://www.w3.org/2000/svg" viewBox="0 0 800.1 759.32">
  <defs>
    <style>
      .cls-1 {
        font-size: 334.03px;
      }

      .cls-1, .cls-2, .cls-3 {
        fill: #ff9d00;
      }

      .cls-1, .cls-3 {
        font-family: Didot-Italic, Didot;
        font-style: italic;
      }

      .cls-3 {
        font-size: 139.64px;
      }
    </style>
  </defs>
  <g id="Layer_1-2" data-name="Layer 1">
    <text class="cls-1" transform="translate(254.63 503.95)"><tspan x="0" y="0">L</tspan></text>
    <text class="cls-1" transform="translate(409.11 577.49)"><tspan x="0" y="0">A</tspan></text>
    <text class="cls-3" transform="translate(411.81 395.62)"><tspan x="0" y="0">&amp;</tspan></text>
    <path class="cls-2" d="M431.8,241.64c-2.77.62-3.47-1.52-5.13-2.82-6.6-5.17-11.6-13.23-18.32-19.08-19.63-17.1-45.34-26.79-71.39-30.16-3.83-.5-12.73.9-14.57-1.51l-.65-4.29c2.44-3.69,29.69,1.16,34.96,2.34,21.28,4.77,45.94,17.79,61.23,32.88,3.02,2.98,17.06,19.17,13.88,22.64Z"/>
    <path class="cls-2" d="M195.5,303.77l6.02.83c1.2,17.19,3.43,31.68,10.33,47.69,6.7,15.53,16.29,27.31,27.73,39.73l-2.28,3.54c-5.64,1.46-20.37-19.33-23.34-24.12-5.56-8.94-18.46-36.24-18.46-45.78v-21.89Z"/>
    <g>
      <path class="cls-2" d="M644.66,377.77c1.91-.26,11.26,2,13.9,2.6,74.51,17,128.32,82.77,139.37,157.23,23.28,156.88-145.46,284.87-283.02,188.26-31.69-22.26-68.07-67.96-75.04-106.86-.57-3.2-.85-8.86,4.16-5.97,1.53.88,6.76,9.59,8.51,11.77,64.66,80.43,177.22,78.43,237.45-5.81,49.88-69.76,36.81-170.4-30.27-223.91-3.13-2.5-15.77-10.39-17.03-12.39-1.47-2.35-.86-4.53,1.96-4.92ZM451.53,633.45c12.4,36.1,38.19,67.78,69.52,89.15,139.46,95.15,305.25-46.34,267.5-201.45-15.6-64.09-63.71-118.01-128.6-133.87l9.93,8.29c98.53,84.98,61.23,262.53-68.51,290.77-57.41,12.49-112.02-9.78-149.84-52.88Z"/>
      <path class="cls-2" d="M781.55,563.17l-2.46-9.76c-2.81-29.31-12.16-58.83-26.62-84.42-4.43-7.84-10.15-14.91-14.17-22.97,18.76,16.4,31.03,40.33,38.01,64.07,4.98,16.93,8.53,35.53,5.23,53.08Z"/>
      <path class="cls-2" d="M639.02,739.32c-1.03,1.94-5.21,2.16-7.33,2.5-33.43,5.29-76.76-7.04-103.53-27.48-.94-.72-7.35-5.43-6.44-6.37l27.25,14c28.21,12.68,59.04,18.58,90.05,17.36Z"/>
      <path class="cls-2" d="M773.54,616.26c1.5-10.08,2.13-21.36,4.25-31.24.35-1.62.97-6.02,2.97-6.26,3.68,1.74,1.32,13.8.59,17.25-1.34,6.35-4.1,15.04-7.81,20.25Z"/>
    </g>
    <path class="cls-2" d="M175.11,308.9c0-79.78,67.23-144.46,150.16-144.46,53.75,0,100.9,27.18,127.43,68.02l11.99-11.33c1.88-4.09,8.43-12.9,9.57-14.53,25.81-37.04,53.69-72.87,79.37-110.02l1.01-7.62-6.04-.06-134.89,91.9c-2.94-1.99-1.56-1.95-1.18-3.89.86-4.28,4.51-9.65,5.86-14.17,7.68-25.71,2.11-53.47,13.84-77.05,3.14-6.32,9.16-10.82,8.55-17.8-2.74-3.72-15.08,5.24-18.03,7.27-33.65,23.12-28.4,59.24-59.71,82.35-1.47,1.09-1.86,2.74-4.41,2.1L330.64,5.09c-1.87-6.96-8.27-6.7-9.82.23-9.64,48.03-15.25,98.42-25.72,146.11-.33,1.49-1.46,8.14-3.25,8.14-5.17-11.62-8.93-21.54-16.55-32.05-14.46-19.94-31.12-27.68-37.83-53.98-.53-2.08-1.11-23.43-8.72-14.18-4.64,5.63-5.76,32.46-4.97,40.06,2.1,20,15.65,36.31,17.43,56.65.64,7.28-.46,15.22,0,22.59l-3.64,2.16L102.63,88.89l-5.81-1.2-2.4,3.37,95.06,134.41-1.12,4.74c-10.43-4.6-22.04-9-33.4-10.91-23.34-3.93-40.85.62-64.45-8.6-3.58-1.4-18.69-10.19-20.07-9.93-2.36.45-3.98,3.08-3.32,5.47.78,2.78,12.14,17.1,14.85,19.74,22.41,21.77,53.03,21.4,77.07,43.05,1.19,1.07,9.04,7.87,7.31,9.19L0,306.82l.82,4.95c43.98,9.21,89.17,14.08,133.52,21.95,4.72.84,32.97,5.1,33.48,7.34.64,2.8-15.43,7.91-19.1,9.84-23.5,12.33-35.88,34.84-61.24,44.17-7.8,2.87-20.46,2.94-23.78,9.35,1.45,7.85,34.72,6.88,41.33,6.12,18.78-2.16,42.37-19.37,56.19-19.37h28.62l-97.57,132.78-.12,5.68,5.6,1.06,139.04-94.33,6.73-6.28c-41.18-25.76-68.41-70.41-68.41-121.19ZM456.95,217.49c-3.03,1.99-13.53-12.59-16.06-14.82l79.18-75.54-63.13,90.36ZM511.28,125.73l-73.39,72.8-16.14-11.4,89.52-61.39ZM415.89,101.72c4.18.8-.02,8.09-.02,9.17,0,8.13.7,17.51,0,25.42-.55,6.25-2.87,16.04-4.82,22.19-1.81,5.72-5.31,10.87-6.94,16.64l-14.68-6.37c17.04-19.55,20.98-42.86,26.45-67.05ZM370.39,160.33c1.08-2.44,15.04-14.62,18.79-20.06,7.51-10.88,11.16-23.25,16.17-35.28l7.58-10.33c-9.72,24.19-9.32,49.96-28.17,70.3-2.5,1.4-9.9-.91-12.52-2.23-.98-.49-2.86-.1-1.84-2.4ZM329.28,50.88l20.57,106.59-20.57-.69V50.88ZM302.84,156.08l20.57-106.61v105.2c-1.04,3.24-14.38,1.86-19.05,2.88-1.81.4-1.77,1.64-1.52-1.47ZM282.32,162.42l-14.68,2.84c-.6-9.42-3-19.48-6.64-28.22-5.48-13.17-16.19-23.55-21.24-36.74,16.4,19.4,38.75,35.47,42.55,62.12ZM230.96,93.25l8.03,19.79c12.64,17.14,22.88,34.46,22.61,56.29l-11.55,4.39c-2.17-10.48-1.35-20.42-3.63-31.11-3.6-16.82-15.73-31.47-15.45-49.36ZM226.47,184.38c4.57,4.83-10.24,10.23-12.41,14.74l-75.57-74.81,87.98,60.08ZM132.62,129.95l75.66,72.02v2.8c-2.74,1.37-10.85,14.87-14,12.71l-61.66-87.54ZM165.61,285.25l-.71,19.79H53.34l112.26-19.79ZM50.41,310.69h114.48l.72,19.78-115.2-19.78ZM182.38,238.19l-4.31,11.78c-9.93-4.59-18.49-11.43-28.95-15.19-11.52-4.15-22.82-4.83-34.46-7.8-2.62-.67-8.64-1.64-9.95-3.82,25.81,5.28,55.19-1.43,77.66,15.03ZM138.95,245.98c-8.45-4.21-18.65-6.41-27.42-10.33-3.51-1.57-8.88-3.88-11.21-6.85,17.91,7.53,37.69,6.84,55.3,15.26,11.46,5.48,22.95,10.81,15.12,24.26-10.26-7.05-20.56-16.75-31.79-22.34ZM137.77,367.2c4.68-3.61,27.32-16.85,32.07-15.46l1.66,1.29c.32,2.5,5.35,10.32,2.26,12.07-25.54.32-43.11,18.01-64.63,27.47l28.64-25.37ZM104.72,402.46l46.99-26.08c8.77-3.03,18.2-5.89,27.63-4.73l4.63,11.05c-29.98-3.91-51.84,14.36-79.24,19.76ZM196.43,399.65c1.86,3.56,12.19,12.09,10.39,15.5l-74.21,70.63,63.82-86.13ZM135.54,492.83l74.9-74.19c5.41-2.59,12.11,10.51,17.56,10.69l-92.46,63.5Z"/>
  </g>
</svg>